<svg width="107" height="17" viewBox="0 0 107 17" fill="none" xmlns="http://www.w3.org/2000/svg">
<path d="M5.12641 12.224C4.20374 12.224 3.38774 12.0213 2.67841 11.616C1.97441 11.2107 1.42241 10.6053 1.02241 9.8C0.62241 8.99467 0.42241 7.99467 0.42241 6.8C0.42241 5.584 0.62241 4.57867 1.02241 3.784C1.42241 2.984 1.97441 2.38933 2.67841 2C3.38774 1.60533 4.20374 1.408 5.12641 1.408C6.05441 1.408 6.87308 1.61067 7.58241 2.016C8.29174 2.416 8.84641 3.016 9.24641 3.816C9.64641 4.616 9.84641 5.61067 9.84641 6.8C9.84641 8.01067 9.64641 9.01867 9.24641 9.824C8.84641 10.6293 8.29174 11.232 7.58241 11.632C6.87308 12.0267 6.05441 12.224 5.12641 12.224ZM5.12641 10.512C5.97441 10.512 6.64641 10.192 7.14241 9.552C7.64374 8.912 7.89441 7.98933 7.89441 6.784C7.89441 5.62133 7.64374 4.71733 7.14241 4.072C6.64641 3.42667 5.97441 3.104 5.12641 3.104C4.29441 3.104 3.62774 3.42933 3.12641 4.08C2.62508 4.72533 2.37441 5.632 2.37441 6.8C2.37441 8 2.62508 8.92 3.12641 9.56C3.62774 10.1947 4.29441 10.512 5.12641 10.512ZM12.0803 12V4.208H13.9683V12H12.0803ZM13.5043 8.592C13.5043 7.57333 13.619 6.73067 13.8483 6.064C14.0776 5.39733 14.3843 4.904 14.7683 4.584C15.1576 4.25867 15.5896 4.096 16.0643 4.096C16.1923 4.096 16.3123 4.104 16.4243 4.12C16.5416 4.136 16.6563 4.16 16.7683 4.192L16.7363 6.08C16.5976 6.048 16.4483 6.02133 16.2883 6C16.1283 5.97867 15.9843 5.968 15.8563 5.968C15.4403 5.968 15.091 6.06933 14.8083 6.272C14.531 6.46933 14.3203 6.76267 14.1763 7.152C14.0376 7.54133 13.9683 8.02133 13.9683 8.592H13.5043ZM21.2255 12.224C20.5749 12.224 19.9802 12.0533 19.4415 11.712C18.9082 11.3653 18.4815 10.8827 18.1615 10.264C17.8469 9.64 17.6895 8.912 17.6895 8.08C17.6895 7.25867 17.8415 6.544 18.1455 5.936C18.4549 5.32267 18.8655 4.85067 19.3775 4.52C19.8949 4.184 20.4682 4.016 21.0975 4.016C21.6735 4.016 22.1722 4.15467 22.5935 4.432C23.0149 4.704 23.3375 5.10933 23.5615 5.648C23.7855 6.18667 23.8975 6.848 23.8975 7.632H23.3055C23.3055 7.22667 23.2229 6.88267 23.0575 6.6C22.8922 6.312 22.6735 6.09333 22.4015 5.944C22.1349 5.78933 21.8442 5.712 21.5295 5.712C21.1509 5.712 20.8149 5.81067 20.5215 6.008C20.2335 6.20533 20.0069 6.48267 19.8415 6.84C19.6762 7.192 19.5935 7.60533 19.5935 8.08C19.5935 8.57067 19.6762 8.99733 19.8415 9.36C20.0069 9.72267 20.2335 10.0053 20.5215 10.208C20.8149 10.4107 21.1455 10.512 21.5135 10.512C21.8122 10.512 22.0975 10.432 22.3695 10.272C22.6469 10.1067 22.8709 9.87733 23.0415 9.584C23.2175 9.29067 23.3055 8.94933 23.3055 8.56H23.8975C23.8975 9.376 23.7749 10.056 23.5295 10.6C23.2895 11.1387 22.9669 11.544 22.5615 11.816C22.1562 12.088 21.7109 12.224 21.2255 12.224ZM23.6575 12L23.3055 10.08V1.024H25.2095V12H23.6575ZM31.0857 12.224C30.4243 12.224 29.819 12.0533 29.2697 11.712C28.7203 11.3707 28.2803 10.8933 27.9497 10.28C27.619 9.66133 27.4537 8.93867 27.4537 8.112C27.4537 7.25867 27.6163 6.52533 27.9417 5.912C28.2723 5.29867 28.7123 4.82933 29.2617 4.504C29.811 4.17867 30.419 4.016 31.0857 4.016C31.7043 4.016 32.2377 4.14133 32.6857 4.392C33.139 4.63733 33.5017 4.97333 33.7737 5.4C34.051 5.82133 34.2377 6.29867 34.3337 6.832C34.4297 7.36533 34.435 7.91467 34.3497 8.48H28.9577V7.456H33.0137L32.6457 7.696C32.6617 7.44533 32.6483 7.192 32.6057 6.936C32.5683 6.68 32.4937 6.44533 32.3817 6.232C32.2697 6.01867 32.1097 5.848 31.9017 5.72C31.699 5.58667 31.4377 5.52 31.1177 5.52C30.7337 5.52 30.4083 5.616 30.1417 5.808C29.875 6 29.6723 6.26133 29.5337 6.592C29.395 6.92267 29.3257 7.296 29.3257 7.712V8.464C29.3257 8.90133 29.3897 9.288 29.5177 9.624C29.651 9.96 29.8457 10.224 30.1017 10.416C30.363 10.608 30.691 10.704 31.0857 10.704C31.4537 10.704 31.763 10.6187 32.0137 10.448C32.2643 10.2773 32.4243 10.0213 32.4937 9.68H34.3977C34.3177 10.1813 34.1283 10.624 33.8297 11.008C33.5363 11.3867 33.155 11.6853 32.6857 11.904C32.2163 12.1173 31.683 12.224 31.0857 12.224ZM36.674 12V4.208H38.562V12H36.674ZM38.098 8.592C38.098 7.57333 38.2127 6.73067 38.442 6.064C38.6714 5.39733 38.978 4.904 39.362 4.584C39.7514 4.25867 40.1834 4.096 40.658 4.096C40.786 4.096 40.906 4.104 41.018 4.12C41.1354 4.136 41.25 4.16 41.362 4.192L41.33 6.08C41.1914 6.048 41.042 6.02133 40.882 6C40.722 5.97867 40.578 5.968 40.45 5.968C40.034 5.968 39.6847 6.06933 39.402 6.272C39.1247 6.46933 38.914 6.76267 38.77 7.152C38.6314 7.54133 38.562 8.02133 38.562 8.592H38.098ZM47.0022 1.616H50.3622C51.4182 1.616 52.3435 1.82933 53.1382 2.256C53.9328 2.67733 54.5515 3.27733 54.9942 4.056C55.4368 4.83467 55.6582 5.75467 55.6582 6.816C55.6582 7.86667 55.4368 8.78133 54.9942 9.56C54.5515 10.3333 53.9328 10.9333 53.1382 11.36C52.3435 11.7867 51.4182 12 50.3622 12H47.0022V1.616ZM48.8902 3.328V10.304H50.3622C51.0342 10.304 51.6128 10.152 52.0982 9.848C52.5888 9.544 52.9648 9.13067 53.2262 8.608C53.4928 8.08 53.6262 7.48267 53.6262 6.816C53.6262 6.13867 53.4928 5.53867 53.2262 5.016C52.9648 4.49333 52.5888 4.08267 52.0982 3.784C51.6128 3.48 51.0342 3.328 50.3622 3.328H48.8902ZM60.8825 12.224C60.2212 12.224 59.6159 12.0533 59.0665 11.712C58.5172 11.3707 58.0772 10.8933 57.7465 10.28C57.4159 9.66133 57.2505 8.93867 57.2505 8.112C57.2505 7.25867 57.4132 6.52533 57.7385 5.912C58.0692 5.29867 58.5092 4.82933 59.0585 4.504C59.6079 4.17867 60.2159 4.016 60.8825 4.016C61.5012 4.016 62.0345 4.14133 62.4825 4.392C62.9359 4.63733 63.2985 4.97333 63.5705 5.4C63.8479 5.82133 64.0345 6.29867 64.1305 6.832C64.2265 7.36533 64.2319 7.91467 64.1465 8.48H58.7545V7.456H62.8105L62.4425 7.696C62.4585 7.44533 62.4452 7.192 62.4025 6.936C62.3652 6.68 62.2905 6.44533 62.1785 6.232C62.0665 6.01867 61.9065 5.848 61.6985 5.72C61.4959 5.58667 61.2345 5.52 60.9145 5.52C60.5305 5.52 60.2052 5.616 59.9385 5.808C59.6719 6 59.4692 6.26133 59.3305 6.592C59.1919 6.92267 59.1225 7.296 59.1225 7.712V8.464C59.1225 8.90133 59.1865 9.288 59.3145 9.624C59.4479 9.96 59.6425 10.224 59.8985 10.416C60.1599 10.608 60.4879 10.704 60.8825 10.704C61.2505 10.704 61.5599 10.6187 61.8105 10.448C62.0612 10.2773 62.2212 10.0213 62.2905 9.68H64.1945C64.1145 10.1813 63.9252 10.624 63.6265 11.008C63.3332 11.3867 62.9519 11.6853 62.4825 11.904C62.0132 12.1173 61.4799 12.224 60.8825 12.224ZM66.4709 12V1.024H68.3589V12H66.4709ZM72.4499 2.816C72.0819 2.816 71.7939 2.72 71.5859 2.528C71.3832 2.33067 71.2819 2.05867 71.2819 1.712C71.2819 1.376 71.3832 1.10933 71.5859 0.912C71.7939 0.709333 72.0819 0.608 72.4499 0.608C72.8126 0.608 73.0979 0.709333 73.3059 0.912C73.5139 1.10933 73.6179 1.376 73.6179 1.712C73.6179 2.05867 73.5139 2.33067 73.3059 2.528C73.0979 2.72 72.8126 2.816 72.4499 2.816ZM71.5059 12V4.208H73.3939V12H71.5059ZM75.2999 4.24H77.4759L79.3319 10.384H79.1879L81.0439 4.24H83.2199L80.3239 12H78.1959L75.2999 4.24ZM87.7888 12.224C87.1275 12.224 86.5221 12.0533 85.9728 11.712C85.4235 11.3707 84.9835 10.8933 84.6528 10.28C84.3221 9.66133 84.1568 8.93867 84.1568 8.112C84.1568 7.25867 84.3195 6.52533 84.6448 5.912C84.9755 5.29867 85.4155 4.82933 85.9648 4.504C86.5141 4.17867 87.1221 4.016 87.7888 4.016C88.4075 4.016 88.9408 4.14133 89.3888 4.392C89.8421 4.63733 90.2048 4.97333 90.4768 5.4C90.7541 5.82133 90.9408 6.29867 91.0368 6.832C91.1328 7.36533 91.1381 7.91467 91.0528 8.48H85.6608V7.456H89.7168L89.3488 7.696C89.3648 7.44533 89.3515 7.192 89.3088 6.936C89.2715 6.68 89.1968 6.44533 89.0848 6.232C88.9728 6.01867 88.8128 5.848 88.6048 5.72C88.4021 5.58667 88.1408 5.52 87.8208 5.52C87.4368 5.52 87.1115 5.616 86.8448 5.808C86.5781 6 86.3755 6.26133 86.2368 6.592C86.0981 6.92267 86.0288 7.296 86.0288 7.712V8.464C86.0288 8.90133 86.0928 9.288 86.2208 9.624C86.3541 9.96 86.5488 10.224 86.8048 10.416C87.0661 10.608 87.3941 10.704 87.7888 10.704C88.1568 10.704 88.4661 10.6187 88.7168 10.448C88.9675 10.2773 89.1275 10.0213 89.1968 9.68H91.1008C91.0208 10.1813 90.8315 10.624 90.5328 11.008C90.2395 11.3867 89.8581 11.6853 89.3888 11.904C88.9195 12.1173 88.3861 12.224 87.7888 12.224ZM93.3772 12V4.208H95.2652V12H93.3772ZM94.8012 8.592C94.8012 7.57333 94.9158 6.73067 95.1452 6.064C95.3745 5.39733 95.6812 4.904 96.0652 4.584C96.4545 4.25867 96.8865 4.096 97.3612 4.096C97.4892 4.096 97.6092 4.104 97.7212 4.12C97.8385 4.136 97.9532 4.16 98.0652 4.192L98.0332 6.08C97.8945 6.048 97.7452 6.02133 97.5852 6C97.4252 5.97867 97.2812 5.968 97.1532 5.968C96.7372 5.968 96.3878 6.06933 96.1052 6.272C95.8278 6.46933 95.6172 6.76267 95.4732 7.152C95.3345 7.54133 95.2652 8.02133 95.2652 8.592H94.8012ZM98.4744 4.24H100.618L102.682 10.352H102.346L104.122 4.24H106.042L103.066 13.408C102.762 14.3253 102.386 14.9893 101.938 15.4C101.496 15.8107 100.954 16.016 100.314 16.016C99.9464 16.016 99.5864 15.9733 99.2344 15.888C98.8877 15.808 98.5331 15.68 98.1704 15.504V13.84C98.4637 14.0213 98.7464 14.1547 99.0184 14.24C99.2957 14.3253 99.5731 14.368 99.8504 14.368C100.101 14.368 100.32 14.2987 100.506 14.16C100.698 14.0267 100.864 13.8373 101.002 13.592C101.141 13.352 101.258 13.072 101.354 12.752L101.594 12L98.4744 4.24Z" fill="#333333"/>
</svg>
